<mxfile host="app.diagrams.net" modified="2023-11-02T21:29:57.579Z" agent="Mozilla/5.0 (Windows NT 10.0; Win64; x64; rv:109.0) Gecko/20100101 Firefox/119.0" etag="GjS4lG2ac56zZz3FBXAY" version="22.0.8" type="device">
  <diagram name="Page-1" id="0783ab3e-0a74-02c8-0abd-f7b4e66b4bec">
    <mxGraphModel dx="587" dy="2495" grid="1" gridSize="10" guides="1" tooltips="1" connect="1" arrows="1" fold="1" page="1" pageScale="1" pageWidth="850" pageHeight="1100" background="none" math="0" shadow="0">
      <root>
        <mxCell id="0" />
        <mxCell id="1" parent="0" />
        <mxCell id="Sj1vOakclsTmjPWeNW5r-7" style="edgeStyle=orthogonalEdgeStyle;rounded=0;orthogonalLoop=1;jettySize=auto;html=1;exitX=0.5;exitY=1;exitDx=0;exitDy=0;entryX=0.5;entryY=0;entryDx=0;entryDy=0;" parent="1" source="Sj1vOakclsTmjPWeNW5r-4" target="Sj1vOakclsTmjPWeNW5r-5" edge="1">
          <mxGeometry relative="1" as="geometry" />
        </mxCell>
        <mxCell id="Sj1vOakclsTmjPWeNW5r-4" value="" style="ellipse;html=1;shape=endState;fillColor=#000000;strokeColor=#ff0000;" parent="1" vertex="1">
          <mxGeometry x="400" y="-1600" width="40" height="40" as="geometry" />
        </mxCell>
        <mxCell id="Sj1vOakclsTmjPWeNW5r-5" value="Prijem obaveštenja" style="rounded=1;whiteSpace=wrap;html=1;arcSize=40;fontColor=#000000;fillColor=#ffffc0;strokeColor=#ff0000;" parent="1" vertex="1">
          <mxGeometry x="360" y="-1520" width="120" height="40" as="geometry" />
        </mxCell>
        <mxCell id="Sj1vOakclsTmjPWeNW5r-6" value="" style="edgeStyle=orthogonalEdgeStyle;html=1;verticalAlign=bottom;endArrow=open;endSize=8;strokeColor=#ff0000;rounded=0;" parent="1" source="Sj1vOakclsTmjPWeNW5r-5" edge="1">
          <mxGeometry relative="1" as="geometry">
            <mxPoint x="420" y="-1435" as="targetPoint" />
          </mxGeometry>
        </mxCell>
        <mxCell id="Sj1vOakclsTmjPWeNW5r-8" value="Izlazak na glasanje" style="rhombus;whiteSpace=wrap;html=1;fontColor=#000000;fillColor=#ffffc0;strokeColor=#ff0000;" parent="1" vertex="1">
          <mxGeometry x="375" y="-1440" width="90" height="50" as="geometry" />
        </mxCell>
        <mxCell id="Sj1vOakclsTmjPWeNW5r-9" value="Da" style="edgeStyle=orthogonalEdgeStyle;html=1;align=left;verticalAlign=bottom;endArrow=open;endSize=8;strokeColor=#ff0000;rounded=0;" parent="1" source="Sj1vOakclsTmjPWeNW5r-8" edge="1">
          <mxGeometry x="-1" relative="1" as="geometry">
            <mxPoint x="560" y="-1320" as="targetPoint" />
            <Array as="points">
              <mxPoint x="560" y="-1415" />
            </Array>
          </mxGeometry>
        </mxCell>
        <mxCell id="Sj1vOakclsTmjPWeNW5r-10" value="Ne&lt;br&gt;" style="edgeStyle=orthogonalEdgeStyle;html=1;align=left;verticalAlign=top;endArrow=open;endSize=8;strokeColor=#ff0000;rounded=0;exitX=0;exitY=0.5;exitDx=0;exitDy=0;" parent="1" source="Sj1vOakclsTmjPWeNW5r-8" edge="1">
          <mxGeometry x="-0.7059" y="-25" relative="1" as="geometry">
            <mxPoint x="280" y="-1320" as="targetPoint" />
            <Array as="points">
              <mxPoint x="280" y="-1415" />
              <mxPoint x="280" y="-1330" />
            </Array>
            <mxPoint as="offset" />
          </mxGeometry>
        </mxCell>
        <mxCell id="Sj1vOakclsTmjPWeNW5r-15" value="Lično glasanje" style="rhombus;whiteSpace=wrap;html=1;fontColor=#000000;fillColor=#ffffc0;strokeColor=#ff0000;" parent="1" vertex="1">
          <mxGeometry x="515" y="-1320" width="90" height="50" as="geometry" />
        </mxCell>
        <mxCell id="Sj1vOakclsTmjPWeNW5r-16" value="Da" style="edgeStyle=orthogonalEdgeStyle;html=1;align=left;verticalAlign=bottom;endArrow=open;endSize=8;strokeColor=#ff0000;rounded=0;entryX=0.5;entryY=0;entryDx=0;entryDy=0;" parent="1" source="Sj1vOakclsTmjPWeNW5r-15" edge="1" target="7TB6_AQnsx2KHM4zwrPS-14">
          <mxGeometry x="-1" relative="1" as="geometry">
            <mxPoint x="610" y="-1065" as="targetPoint" />
            <Array as="points">
              <mxPoint x="700" y="-1295" />
              <mxPoint x="700" y="-1100" />
              <mxPoint x="560" y="-1100" />
            </Array>
          </mxGeometry>
        </mxCell>
        <mxCell id="Sj1vOakclsTmjPWeNW5r-17" value="Ne&lt;br&gt;" style="edgeStyle=orthogonalEdgeStyle;html=1;align=left;verticalAlign=top;endArrow=open;endSize=8;strokeColor=#ff0000;rounded=0;exitX=0;exitY=0.5;exitDx=0;exitDy=0;" parent="1" source="Sj1vOakclsTmjPWeNW5r-15" edge="1">
          <mxGeometry x="-0.7059" y="-25" relative="1" as="geometry">
            <mxPoint x="420" y="-1260" as="targetPoint" />
            <Array as="points">
              <mxPoint x="420" y="-1295" />
            </Array>
            <mxPoint as="offset" />
          </mxGeometry>
        </mxCell>
        <mxCell id="7TB6_AQnsx2KHM4zwrPS-1" value="&lt;div&gt;Pristup internet servisu&lt;/div&gt;" style="rounded=1;whiteSpace=wrap;html=1;arcSize=40;fontColor=#000000;fillColor=#ffffc0;strokeColor=#ff0000;" vertex="1" parent="1">
          <mxGeometry x="360" y="-1260" width="120" height="40" as="geometry" />
        </mxCell>
        <mxCell id="7TB6_AQnsx2KHM4zwrPS-2" value="" style="edgeStyle=orthogonalEdgeStyle;html=1;verticalAlign=bottom;endArrow=open;endSize=8;strokeColor=#ff0000;rounded=0;" edge="1" source="7TB6_AQnsx2KHM4zwrPS-1" parent="1">
          <mxGeometry relative="1" as="geometry">
            <mxPoint x="420" y="-1180" as="targetPoint" />
          </mxGeometry>
        </mxCell>
        <mxCell id="7TB6_AQnsx2KHM4zwrPS-3" value="&lt;div&gt;Popunjavanje obrasca&lt;/div&gt;" style="rounded=1;whiteSpace=wrap;html=1;arcSize=40;fontColor=#000000;fillColor=#ffffc0;strokeColor=#ff0000;" vertex="1" parent="1">
          <mxGeometry x="360" y="-1180" width="120" height="40" as="geometry" />
        </mxCell>
        <mxCell id="7TB6_AQnsx2KHM4zwrPS-10" value="" style="edgeStyle=orthogonalEdgeStyle;html=1;verticalAlign=bottom;endArrow=open;endSize=8;strokeColor=#ff0000;rounded=0;entryX=0.5;entryY=0;entryDx=0;entryDy=0;" edge="1" parent="1" target="7TB6_AQnsx2KHM4zwrPS-14">
          <mxGeometry relative="1" as="geometry">
            <mxPoint x="510" y="-1065" as="targetPoint" />
            <mxPoint x="420" y="-1140" as="sourcePoint" />
            <Array as="points">
              <mxPoint x="420" y="-1100" />
              <mxPoint x="560" y="-1100" />
            </Array>
          </mxGeometry>
        </mxCell>
        <mxCell id="7TB6_AQnsx2KHM4zwrPS-11" value="" style="ellipse;html=1;shape=endState;fillColor=#000000;strokeColor=#ff0000;" vertex="1" parent="1">
          <mxGeometry x="260" y="-1320" width="40" height="40" as="geometry" />
        </mxCell>
        <mxCell id="7TB6_AQnsx2KHM4zwrPS-14" value="&lt;div&gt;Glasanje uživo&lt;/div&gt;" style="rhombus;whiteSpace=wrap;html=1;fontColor=#000000;fillColor=#ffffc0;strokeColor=#ff0000;" vertex="1" parent="1">
          <mxGeometry x="515" y="-1080" width="90" height="50" as="geometry" />
        </mxCell>
        <mxCell id="7TB6_AQnsx2KHM4zwrPS-15" value="Da" style="edgeStyle=orthogonalEdgeStyle;html=1;align=left;verticalAlign=bottom;endArrow=open;endSize=8;strokeColor=#ff0000;rounded=0;" edge="1" parent="1" source="7TB6_AQnsx2KHM4zwrPS-14">
          <mxGeometry x="-1" relative="1" as="geometry">
            <mxPoint x="700" y="-1030" as="targetPoint" />
            <Array as="points">
              <mxPoint x="700" y="-1055" />
            </Array>
          </mxGeometry>
        </mxCell>
        <mxCell id="7TB6_AQnsx2KHM4zwrPS-16" value="Ne&lt;br&gt;" style="edgeStyle=orthogonalEdgeStyle;html=1;align=left;verticalAlign=top;endArrow=open;endSize=8;strokeColor=#ff0000;rounded=0;exitX=0;exitY=0.5;exitDx=0;exitDy=0;" edge="1" parent="1" source="7TB6_AQnsx2KHM4zwrPS-14">
          <mxGeometry x="-0.7059" y="-25" relative="1" as="geometry">
            <mxPoint x="420" y="-1020" as="targetPoint" />
            <Array as="points">
              <mxPoint x="420" y="-1055" />
            </Array>
            <mxPoint as="offset" />
          </mxGeometry>
        </mxCell>
        <mxCell id="7TB6_AQnsx2KHM4zwrPS-19" value="" style="shape=line;html=1;strokeWidth=6;strokeColor=#ff0000;" vertex="1" parent="1">
          <mxGeometry x="325" y="-860" width="200" height="10" as="geometry" />
        </mxCell>
        <mxCell id="7TB6_AQnsx2KHM4zwrPS-20" value="" style="edgeStyle=orthogonalEdgeStyle;html=1;verticalAlign=bottom;endArrow=open;endSize=8;strokeColor=#ff0000;rounded=0;" edge="1" parent="1">
          <mxGeometry relative="1" as="geometry">
            <mxPoint x="350" y="-780" as="targetPoint" />
            <mxPoint x="350" y="-850" as="sourcePoint" />
            <Array as="points">
              <mxPoint x="350" y="-830" />
              <mxPoint x="350" y="-830" />
            </Array>
          </mxGeometry>
        </mxCell>
        <mxCell id="7TB6_AQnsx2KHM4zwrPS-21" value="" style="edgeStyle=orthogonalEdgeStyle;html=1;verticalAlign=bottom;endArrow=open;endSize=8;strokeColor=#ff0000;rounded=0;" edge="1" parent="1">
          <mxGeometry relative="1" as="geometry">
            <mxPoint x="500" y="-780" as="targetPoint" />
            <mxPoint x="500" y="-850" as="sourcePoint" />
            <Array as="points">
              <mxPoint x="500" y="-830" />
              <mxPoint x="500" y="-830" />
            </Array>
          </mxGeometry>
        </mxCell>
        <mxCell id="7TB6_AQnsx2KHM4zwrPS-22" value="&lt;div&gt;Pristup internet servisu&lt;/div&gt;" style="rounded=1;whiteSpace=wrap;html=1;arcSize=40;fontColor=#000000;fillColor=#ffffc0;strokeColor=#ff0000;" vertex="1" parent="1">
          <mxGeometry x="365" y="-1020" width="120" height="40" as="geometry" />
        </mxCell>
        <mxCell id="7TB6_AQnsx2KHM4zwrPS-23" value="" style="edgeStyle=orthogonalEdgeStyle;html=1;verticalAlign=bottom;endArrow=open;endSize=8;strokeColor=#ff0000;rounded=0;" edge="1" source="7TB6_AQnsx2KHM4zwrPS-22" parent="1">
          <mxGeometry relative="1" as="geometry">
            <mxPoint x="425" y="-940" as="targetPoint" />
          </mxGeometry>
        </mxCell>
        <mxCell id="7TB6_AQnsx2KHM4zwrPS-24" value="Unos traženih podataka" style="rounded=1;whiteSpace=wrap;html=1;arcSize=40;fontColor=#000000;fillColor=#ffffc0;strokeColor=#ff0000;" vertex="1" parent="1">
          <mxGeometry x="365" y="-940" width="120" height="40" as="geometry" />
        </mxCell>
        <mxCell id="7TB6_AQnsx2KHM4zwrPS-25" value="" style="edgeStyle=orthogonalEdgeStyle;html=1;verticalAlign=bottom;endArrow=open;endSize=8;strokeColor=#ff0000;rounded=0;" edge="1" source="7TB6_AQnsx2KHM4zwrPS-24" parent="1">
          <mxGeometry relative="1" as="geometry">
            <mxPoint x="425" y="-860" as="targetPoint" />
            <Array as="points">
              <mxPoint x="425" y="-860" />
            </Array>
          </mxGeometry>
        </mxCell>
        <mxCell id="7TB6_AQnsx2KHM4zwrPS-26" value="Provera identiteta" style="rounded=1;whiteSpace=wrap;html=1;arcSize=40;fontColor=#000000;fillColor=#ffffc0;strokeColor=#ff0000;" vertex="1" parent="1">
          <mxGeometry x="290" y="-780" width="120" height="40" as="geometry" />
        </mxCell>
        <mxCell id="7TB6_AQnsx2KHM4zwrPS-27" value="" style="edgeStyle=orthogonalEdgeStyle;html=1;verticalAlign=bottom;endArrow=open;endSize=8;strokeColor=#ff0000;rounded=0;" edge="1" source="7TB6_AQnsx2KHM4zwrPS-26" parent="1" target="7TB6_AQnsx2KHM4zwrPS-34">
          <mxGeometry relative="1" as="geometry">
            <mxPoint x="350" y="-690" as="targetPoint" />
            <Array as="points">
              <mxPoint x="350" y="-600" />
              <mxPoint x="350" y="-600" />
            </Array>
          </mxGeometry>
        </mxCell>
        <mxCell id="7TB6_AQnsx2KHM4zwrPS-28" value="Glasanje" style="rounded=1;whiteSpace=wrap;html=1;arcSize=40;fontColor=#000000;fillColor=#ffffc0;strokeColor=#ff0000;" vertex="1" parent="1">
          <mxGeometry x="440" y="-780" width="120" height="40" as="geometry" />
        </mxCell>
        <mxCell id="7TB6_AQnsx2KHM4zwrPS-29" value="" style="edgeStyle=orthogonalEdgeStyle;html=1;verticalAlign=bottom;endArrow=open;endSize=8;strokeColor=#ff0000;rounded=0;" edge="1" source="7TB6_AQnsx2KHM4zwrPS-28" parent="1">
          <mxGeometry relative="1" as="geometry">
            <mxPoint x="500" y="-690" as="targetPoint" />
          </mxGeometry>
        </mxCell>
        <mxCell id="7TB6_AQnsx2KHM4zwrPS-30" value="" style="shape=line;html=1;strokeWidth=6;strokeColor=#ff0000;" vertex="1" parent="1">
          <mxGeometry x="400" y="-690" width="200" height="10" as="geometry" />
        </mxCell>
        <mxCell id="7TB6_AQnsx2KHM4zwrPS-31" value="" style="edgeStyle=orthogonalEdgeStyle;html=1;verticalAlign=bottom;endArrow=open;endSize=8;strokeColor=#ff0000;rounded=0;" edge="1" source="7TB6_AQnsx2KHM4zwrPS-30" parent="1">
          <mxGeometry relative="1" as="geometry">
            <mxPoint x="440" y="-630" as="targetPoint" />
            <Array as="points">
              <mxPoint x="510" y="-685" />
              <mxPoint x="510" y="-685" />
            </Array>
          </mxGeometry>
        </mxCell>
        <mxCell id="7TB6_AQnsx2KHM4zwrPS-32" value="Beleženje glasa u bazu" style="rounded=1;whiteSpace=wrap;html=1;arcSize=40;fontColor=#000000;fillColor=#ffffc0;strokeColor=#ff0000;" vertex="1" parent="1">
          <mxGeometry x="380" y="-630" width="120" height="40" as="geometry" />
        </mxCell>
        <mxCell id="7TB6_AQnsx2KHM4zwrPS-33" value="" style="edgeStyle=orthogonalEdgeStyle;html=1;verticalAlign=bottom;endArrow=open;endSize=8;strokeColor=#ff0000;rounded=0;" edge="1" source="7TB6_AQnsx2KHM4zwrPS-32" parent="1">
          <mxGeometry relative="1" as="geometry">
            <mxPoint x="440" y="-550" as="targetPoint" />
          </mxGeometry>
        </mxCell>
        <mxCell id="7TB6_AQnsx2KHM4zwrPS-34" value="" style="shape=line;html=1;strokeWidth=6;strokeColor=#ff0000;" vertex="1" parent="1">
          <mxGeometry x="280" y="-550" width="200" height="10" as="geometry" />
        </mxCell>
        <mxCell id="7TB6_AQnsx2KHM4zwrPS-35" value="" style="edgeStyle=orthogonalEdgeStyle;html=1;verticalAlign=bottom;endArrow=open;endSize=8;strokeColor=#ff0000;rounded=0;entryX=0.5;entryY=0;entryDx=0;entryDy=0;" edge="1" source="7TB6_AQnsx2KHM4zwrPS-34" parent="1" target="7TB6_AQnsx2KHM4zwrPS-36">
          <mxGeometry relative="1" as="geometry">
            <mxPoint x="380" y="-510" as="targetPoint" />
          </mxGeometry>
        </mxCell>
        <mxCell id="7TB6_AQnsx2KHM4zwrPS-36" value="&lt;div&gt;Detekcija manipulacije&lt;/div&gt;" style="rounded=1;whiteSpace=wrap;html=1;arcSize=40;fontColor=#000000;fillColor=#ffffc0;strokeColor=#ff0000;" vertex="1" parent="1">
          <mxGeometry x="320" y="-490" width="120" height="40" as="geometry" />
        </mxCell>
        <mxCell id="7TB6_AQnsx2KHM4zwrPS-41" value="&lt;div&gt;Manipulacija detektovana&lt;/div&gt;" style="rhombus;whiteSpace=wrap;html=1;fontColor=#000000;fillColor=#ffffc0;strokeColor=#ff0000;" vertex="1" parent="1">
          <mxGeometry x="335" y="-390" width="90" height="50" as="geometry" />
        </mxCell>
        <mxCell id="7TB6_AQnsx2KHM4zwrPS-42" value="Da" style="edgeStyle=orthogonalEdgeStyle;html=1;align=left;verticalAlign=bottom;endArrow=open;endSize=8;strokeColor=#ff0000;rounded=0;" edge="1" parent="1" source="7TB6_AQnsx2KHM4zwrPS-41">
          <mxGeometry x="-1" relative="1" as="geometry">
            <mxPoint x="520" y="-320" as="targetPoint" />
            <Array as="points">
              <mxPoint x="520" y="-365" />
            </Array>
          </mxGeometry>
        </mxCell>
        <mxCell id="7TB6_AQnsx2KHM4zwrPS-43" value="Ne&lt;br&gt;" style="edgeStyle=orthogonalEdgeStyle;html=1;align=left;verticalAlign=top;endArrow=open;endSize=8;strokeColor=#ff0000;rounded=0;exitX=0;exitY=0.5;exitDx=0;exitDy=0;" edge="1" parent="1" source="7TB6_AQnsx2KHM4zwrPS-41">
          <mxGeometry x="-0.7059" y="-25" relative="1" as="geometry">
            <mxPoint x="240" y="-270" as="targetPoint" />
            <Array as="points">
              <mxPoint x="240" y="-365" />
              <mxPoint x="240" y="-280" />
            </Array>
            <mxPoint as="offset" />
          </mxGeometry>
        </mxCell>
        <mxCell id="7TB6_AQnsx2KHM4zwrPS-44" value="" style="edgeStyle=orthogonalEdgeStyle;html=1;verticalAlign=bottom;endArrow=open;endSize=8;strokeColor=#ff0000;rounded=0;entryX=0.5;entryY=0;entryDx=0;entryDy=0;" edge="1" parent="1" target="7TB6_AQnsx2KHM4zwrPS-41">
          <mxGeometry relative="1" as="geometry">
            <mxPoint x="380" y="-400" as="targetPoint" />
            <mxPoint x="380" y="-450" as="sourcePoint" />
          </mxGeometry>
        </mxCell>
        <mxCell id="7TB6_AQnsx2KHM4zwrPS-45" value="" style="ellipse;html=1;shape=endState;fillColor=#000000;strokeColor=#ff0000;" vertex="1" parent="1">
          <mxGeometry x="220" y="-270" width="40" height="40" as="geometry" />
        </mxCell>
        <mxCell id="7TB6_AQnsx2KHM4zwrPS-46" value="&lt;div&gt;Analiza pristiglih glasova&lt;/div&gt;" style="rounded=1;whiteSpace=wrap;html=1;arcSize=40;fontColor=#000000;fillColor=#ffffc0;strokeColor=#ff0000;" vertex="1" parent="1">
          <mxGeometry x="460" y="-320" width="120" height="40" as="geometry" />
        </mxCell>
        <mxCell id="7TB6_AQnsx2KHM4zwrPS-47" value="" style="edgeStyle=orthogonalEdgeStyle;html=1;verticalAlign=bottom;endArrow=open;endSize=8;strokeColor=#ff0000;rounded=0;" edge="1" source="7TB6_AQnsx2KHM4zwrPS-46" parent="1">
          <mxGeometry relative="1" as="geometry">
            <mxPoint x="520" y="-230" as="targetPoint" />
          </mxGeometry>
        </mxCell>
        <mxCell id="7TB6_AQnsx2KHM4zwrPS-49" value="Pokretanje istrage" style="rounded=1;whiteSpace=wrap;html=1;arcSize=40;fontColor=#000000;fillColor=#ffffc0;strokeColor=#ff0000;" vertex="1" parent="1">
          <mxGeometry x="460" y="-230" width="120" height="40" as="geometry" />
        </mxCell>
        <mxCell id="7TB6_AQnsx2KHM4zwrPS-50" value="" style="edgeStyle=orthogonalEdgeStyle;html=1;verticalAlign=bottom;endArrow=open;endSize=8;strokeColor=#ff0000;rounded=0;" edge="1" source="7TB6_AQnsx2KHM4zwrPS-49" parent="1">
          <mxGeometry relative="1" as="geometry">
            <mxPoint x="520" y="-150" as="targetPoint" />
          </mxGeometry>
        </mxCell>
        <mxCell id="7TB6_AQnsx2KHM4zwrPS-51" value="" style="ellipse;html=1;shape=endState;fillColor=#000000;strokeColor=#ff0000;" vertex="1" parent="1">
          <mxGeometry x="500" y="-150" width="40" height="40" as="geometry" />
        </mxCell>
        <mxCell id="7TB6_AQnsx2KHM4zwrPS-53" value="Odlazak na izborno mesto" style="rounded=1;whiteSpace=wrap;html=1;arcSize=40;fontColor=#000000;fillColor=#ffffc0;strokeColor=#ff0000;" vertex="1" parent="1">
          <mxGeometry x="640" y="-1030" width="120" height="40" as="geometry" />
        </mxCell>
        <mxCell id="7TB6_AQnsx2KHM4zwrPS-54" value="" style="edgeStyle=orthogonalEdgeStyle;html=1;verticalAlign=bottom;endArrow=open;endSize=8;strokeColor=#ff0000;rounded=0;" edge="1" source="7TB6_AQnsx2KHM4zwrPS-53" parent="1">
          <mxGeometry relative="1" as="geometry">
            <mxPoint x="700" y="-930" as="targetPoint" />
          </mxGeometry>
        </mxCell>
        <mxCell id="7TB6_AQnsx2KHM4zwrPS-57" value="" style="shape=line;html=1;strokeWidth=6;strokeColor=#ff0000;" vertex="1" parent="1">
          <mxGeometry x="600" y="-930" width="200" height="10" as="geometry" />
        </mxCell>
        <mxCell id="7TB6_AQnsx2KHM4zwrPS-58" value="" style="edgeStyle=orthogonalEdgeStyle;html=1;verticalAlign=bottom;endArrow=open;endSize=8;strokeColor=#ff0000;rounded=0;" edge="1" parent="1">
          <mxGeometry relative="1" as="geometry">
            <mxPoint x="625" y="-850" as="targetPoint" />
            <mxPoint x="625" y="-920" as="sourcePoint" />
            <Array as="points">
              <mxPoint x="625" y="-900" />
              <mxPoint x="625" y="-900" />
            </Array>
          </mxGeometry>
        </mxCell>
        <mxCell id="7TB6_AQnsx2KHM4zwrPS-59" value="" style="edgeStyle=orthogonalEdgeStyle;html=1;verticalAlign=bottom;endArrow=open;endSize=8;strokeColor=#ff0000;rounded=0;" edge="1" parent="1">
          <mxGeometry relative="1" as="geometry">
            <mxPoint x="775" y="-850" as="targetPoint" />
            <mxPoint x="775" y="-920" as="sourcePoint" />
            <Array as="points">
              <mxPoint x="775" y="-900" />
              <mxPoint x="775" y="-900" />
            </Array>
          </mxGeometry>
        </mxCell>
        <mxCell id="7TB6_AQnsx2KHM4zwrPS-60" value="&lt;div&gt;Provera identiteta&lt;/div&gt;" style="rounded=1;whiteSpace=wrap;html=1;arcSize=40;fontColor=#000000;fillColor=#ffffc0;strokeColor=#ff0000;" vertex="1" parent="1">
          <mxGeometry x="560" y="-850" width="120" height="40" as="geometry" />
        </mxCell>
        <mxCell id="7TB6_AQnsx2KHM4zwrPS-62" value="" style="edgeStyle=orthogonalEdgeStyle;html=1;verticalAlign=bottom;endArrow=open;endSize=8;strokeColor=#ff0000;rounded=0;" edge="1" parent="1">
          <mxGeometry relative="1" as="geometry">
            <mxPoint x="620" y="-760" as="targetPoint" />
            <mxPoint x="619.58" y="-810" as="sourcePoint" />
            <Array as="points">
              <mxPoint x="619.58" y="-790" />
              <mxPoint x="619.58" y="-790" />
            </Array>
          </mxGeometry>
        </mxCell>
        <mxCell id="7TB6_AQnsx2KHM4zwrPS-63" value="" style="ellipse;html=1;shape=endState;fillColor=#FFFFFF;strokeColor=#CC0000;gradientColor=none;perimeterSpacing=50;strokeWidth=1;" vertex="1" parent="1">
          <mxGeometry x="600" y="-760" width="40" height="40" as="geometry" />
        </mxCell>
        <mxCell id="7TB6_AQnsx2KHM4zwrPS-64" value="" style="shape=umlDestroy;whiteSpace=wrap;html=1;strokeWidth=3;targetShapes=umlLifeline;" vertex="1" parent="1">
          <mxGeometry x="605.5" y="-754.5" width="29" height="29" as="geometry" />
        </mxCell>
        <mxCell id="7TB6_AQnsx2KHM4zwrPS-65" value="&lt;div&gt;Izborna lista&lt;/div&gt;" style="rounded=1;whiteSpace=wrap;html=1;arcSize=40;fontColor=#000000;fillColor=#ffffc0;strokeColor=#ff0000;" vertex="1" parent="1">
          <mxGeometry x="710" y="-850" width="120" height="40" as="geometry" />
        </mxCell>
        <mxCell id="7TB6_AQnsx2KHM4zwrPS-66" value="" style="edgeStyle=orthogonalEdgeStyle;html=1;verticalAlign=bottom;endArrow=open;endSize=8;strokeColor=#ff0000;rounded=0;" edge="1" source="7TB6_AQnsx2KHM4zwrPS-65" parent="1">
          <mxGeometry relative="1" as="geometry">
            <mxPoint x="770" y="-760" as="targetPoint" />
          </mxGeometry>
        </mxCell>
        <mxCell id="7TB6_AQnsx2KHM4zwrPS-67" value="Glasanje" style="rounded=1;whiteSpace=wrap;html=1;arcSize=40;fontColor=#000000;fillColor=#ffffc0;strokeColor=#ff0000;" vertex="1" parent="1">
          <mxGeometry x="710" y="-760" width="120" height="40" as="geometry" />
        </mxCell>
        <mxCell id="7TB6_AQnsx2KHM4zwrPS-68" value="" style="edgeStyle=orthogonalEdgeStyle;html=1;verticalAlign=bottom;endArrow=open;endSize=8;strokeColor=#ff0000;rounded=0;" edge="1" source="7TB6_AQnsx2KHM4zwrPS-67" parent="1">
          <mxGeometry relative="1" as="geometry">
            <mxPoint x="770" y="-680" as="targetPoint" />
          </mxGeometry>
        </mxCell>
        <mxCell id="7TB6_AQnsx2KHM4zwrPS-69" value="Nepravilnost" style="rhombus;whiteSpace=wrap;html=1;fontColor=#000000;fillColor=#ffffc0;strokeColor=#ff0000;" vertex="1" parent="1">
          <mxGeometry x="725" y="-600" width="90" height="50" as="geometry" />
        </mxCell>
        <mxCell id="7TB6_AQnsx2KHM4zwrPS-70" value="Da" style="edgeStyle=orthogonalEdgeStyle;html=1;align=left;verticalAlign=bottom;endArrow=open;endSize=8;strokeColor=#ff0000;rounded=0;" edge="1" parent="1" source="7TB6_AQnsx2KHM4zwrPS-69">
          <mxGeometry x="-1" relative="1" as="geometry">
            <mxPoint x="910" y="-510" as="targetPoint" />
            <Array as="points">
              <mxPoint x="910" y="-575" />
            </Array>
          </mxGeometry>
        </mxCell>
        <mxCell id="7TB6_AQnsx2KHM4zwrPS-71" value="Ne&lt;br&gt;" style="edgeStyle=orthogonalEdgeStyle;html=1;align=left;verticalAlign=top;endArrow=open;endSize=8;strokeColor=#ff0000;rounded=0;exitX=0;exitY=0.5;exitDx=0;exitDy=0;" edge="1" parent="1" source="7TB6_AQnsx2KHM4zwrPS-69">
          <mxGeometry x="-0.7059" y="-25" relative="1" as="geometry">
            <mxPoint x="630" y="-480" as="targetPoint" />
            <Array as="points">
              <mxPoint x="630" y="-575" />
              <mxPoint x="630" y="-490" />
            </Array>
            <mxPoint as="offset" />
          </mxGeometry>
        </mxCell>
        <mxCell id="7TB6_AQnsx2KHM4zwrPS-72" value="" style="ellipse;html=1;shape=endState;fillColor=#000000;strokeColor=#ff0000;" vertex="1" parent="1">
          <mxGeometry x="610" y="-480" width="40" height="40" as="geometry" />
        </mxCell>
        <mxCell id="7TB6_AQnsx2KHM4zwrPS-73" value="Ubacivanje papirića" style="rounded=1;whiteSpace=wrap;html=1;arcSize=40;fontColor=#000000;fillColor=#ffffc0;strokeColor=#ff0000;" vertex="1" parent="1">
          <mxGeometry x="710" y="-680" width="120" height="40" as="geometry" />
        </mxCell>
        <mxCell id="7TB6_AQnsx2KHM4zwrPS-74" value="" style="edgeStyle=orthogonalEdgeStyle;html=1;verticalAlign=bottom;endArrow=open;endSize=8;strokeColor=#ff0000;rounded=0;" edge="1" source="7TB6_AQnsx2KHM4zwrPS-73" parent="1">
          <mxGeometry relative="1" as="geometry">
            <mxPoint x="770" y="-600" as="targetPoint" />
          </mxGeometry>
        </mxCell>
        <mxCell id="7TB6_AQnsx2KHM4zwrPS-75" value="Prijavljivanje" style="rhombus;whiteSpace=wrap;html=1;fontColor=#000000;fillColor=#ffffc0;strokeColor=#ff0000;" vertex="1" parent="1">
          <mxGeometry x="865" y="-510" width="90" height="50" as="geometry" />
        </mxCell>
        <mxCell id="7TB6_AQnsx2KHM4zwrPS-76" value="Da" style="edgeStyle=orthogonalEdgeStyle;html=1;align=left;verticalAlign=bottom;endArrow=open;endSize=8;strokeColor=#ff0000;rounded=0;" edge="1" parent="1" source="7TB6_AQnsx2KHM4zwrPS-75">
          <mxGeometry x="-1" relative="1" as="geometry">
            <mxPoint x="1050" y="-390" as="targetPoint" />
            <Array as="points">
              <mxPoint x="1050" y="-485" />
            </Array>
          </mxGeometry>
        </mxCell>
        <mxCell id="7TB6_AQnsx2KHM4zwrPS-77" value="Ne&lt;br&gt;" style="edgeStyle=orthogonalEdgeStyle;html=1;align=left;verticalAlign=top;endArrow=open;endSize=8;strokeColor=#ff0000;rounded=0;exitX=0;exitY=0.5;exitDx=0;exitDy=0;" edge="1" parent="1" source="7TB6_AQnsx2KHM4zwrPS-75">
          <mxGeometry x="-0.7059" y="-25" relative="1" as="geometry">
            <mxPoint x="770" y="-390" as="targetPoint" />
            <Array as="points">
              <mxPoint x="770" y="-485" />
              <mxPoint x="770" y="-400" />
            </Array>
            <mxPoint as="offset" />
          </mxGeometry>
        </mxCell>
        <mxCell id="7TB6_AQnsx2KHM4zwrPS-78" value="" style="ellipse;html=1;shape=endState;fillColor=#000000;strokeColor=#ff0000;" vertex="1" parent="1">
          <mxGeometry x="750" y="-390" width="40" height="40" as="geometry" />
        </mxCell>
        <mxCell id="7TB6_AQnsx2KHM4zwrPS-79" value="Preko interneta" style="rhombus;whiteSpace=wrap;html=1;fontColor=#000000;fillColor=#ffffc0;strokeColor=#ff0000;" vertex="1" parent="1">
          <mxGeometry x="1005" y="-390" width="90" height="50" as="geometry" />
        </mxCell>
        <mxCell id="7TB6_AQnsx2KHM4zwrPS-80" value="Da" style="edgeStyle=orthogonalEdgeStyle;html=1;align=left;verticalAlign=bottom;endArrow=open;endSize=8;strokeColor=#ff0000;rounded=0;" edge="1" parent="1" source="7TB6_AQnsx2KHM4zwrPS-79">
          <mxGeometry x="-1" relative="1" as="geometry">
            <mxPoint x="1190" y="-310" as="targetPoint" />
            <Array as="points">
              <mxPoint x="1190" y="-365" />
            </Array>
          </mxGeometry>
        </mxCell>
        <mxCell id="7TB6_AQnsx2KHM4zwrPS-81" value="Ne&lt;br&gt;" style="edgeStyle=orthogonalEdgeStyle;html=1;align=left;verticalAlign=top;endArrow=open;endSize=8;strokeColor=#ff0000;rounded=0;exitX=0;exitY=0.5;exitDx=0;exitDy=0;" edge="1" parent="1" source="7TB6_AQnsx2KHM4zwrPS-79">
          <mxGeometry x="-0.7059" y="-25" relative="1" as="geometry">
            <mxPoint x="910" y="-300" as="targetPoint" />
            <Array as="points">
              <mxPoint x="910" y="-365" />
            </Array>
            <mxPoint as="offset" />
          </mxGeometry>
        </mxCell>
        <mxCell id="7TB6_AQnsx2KHM4zwrPS-82" value="Pisanje pismene žalbe" style="rounded=1;whiteSpace=wrap;html=1;arcSize=40;fontColor=#000000;fillColor=#ffffc0;strokeColor=#ff0000;" vertex="1" parent="1">
          <mxGeometry x="850" y="-300" width="120" height="40" as="geometry" />
        </mxCell>
        <mxCell id="7TB6_AQnsx2KHM4zwrPS-83" value="" style="edgeStyle=orthogonalEdgeStyle;html=1;verticalAlign=bottom;endArrow=open;endSize=8;strokeColor=#ff0000;rounded=0;" edge="1" source="7TB6_AQnsx2KHM4zwrPS-82" parent="1">
          <mxGeometry relative="1" as="geometry">
            <mxPoint x="910" y="-220" as="targetPoint" />
          </mxGeometry>
        </mxCell>
        <mxCell id="7TB6_AQnsx2KHM4zwrPS-84" value="" style="shape=line;html=1;strokeWidth=6;strokeColor=#ff0000;" vertex="1" parent="1">
          <mxGeometry x="805" y="-220" width="200" height="10" as="geometry" />
        </mxCell>
        <mxCell id="7TB6_AQnsx2KHM4zwrPS-85" value="" style="edgeStyle=orthogonalEdgeStyle;html=1;verticalAlign=bottom;endArrow=open;endSize=8;strokeColor=#ff0000;rounded=0;" edge="1" parent="1">
          <mxGeometry relative="1" as="geometry">
            <mxPoint x="830" y="-170" as="targetPoint" />
            <mxPoint x="830" y="-210" as="sourcePoint" />
            <Array as="points">
              <mxPoint x="830" y="-190" />
              <mxPoint x="830" y="-190" />
            </Array>
          </mxGeometry>
        </mxCell>
        <mxCell id="7TB6_AQnsx2KHM4zwrPS-86" value="" style="edgeStyle=orthogonalEdgeStyle;html=1;verticalAlign=bottom;endArrow=open;endSize=8;strokeColor=#ff0000;rounded=0;" edge="1" parent="1">
          <mxGeometry relative="1" as="geometry">
            <mxPoint x="980" y="-170" as="targetPoint" />
            <mxPoint x="980" y="-210" as="sourcePoint" />
            <Array as="points">
              <mxPoint x="980" y="-190" />
              <mxPoint x="980" y="-190" />
            </Array>
          </mxGeometry>
        </mxCell>
        <mxCell id="7TB6_AQnsx2KHM4zwrPS-87" value="Obezbeđivanje bezbednosti" style="rounded=1;whiteSpace=wrap;html=1;arcSize=40;fontColor=#000000;fillColor=#ffffc0;strokeColor=#ff0000;" vertex="1" parent="1">
          <mxGeometry x="770" y="-170" width="120" height="40" as="geometry" />
        </mxCell>
        <mxCell id="7TB6_AQnsx2KHM4zwrPS-88" value="Prosleđivanje primedbe" style="rounded=1;whiteSpace=wrap;html=1;arcSize=40;fontColor=#000000;fillColor=#ffffc0;strokeColor=#ff0000;" vertex="1" parent="1">
          <mxGeometry x="920" y="-170" width="120" height="40" as="geometry" />
        </mxCell>
        <mxCell id="7TB6_AQnsx2KHM4zwrPS-90" value="" style="edgeStyle=orthogonalEdgeStyle;html=1;verticalAlign=bottom;endArrow=open;endSize=8;strokeColor=#ff0000;rounded=0;" edge="1" parent="1">
          <mxGeometry relative="1" as="geometry">
            <mxPoint x="830" y="-90" as="targetPoint" />
            <mxPoint x="830" y="-130" as="sourcePoint" />
            <Array as="points">
              <mxPoint x="830" y="-110" />
              <mxPoint x="830" y="-110" />
            </Array>
          </mxGeometry>
        </mxCell>
        <mxCell id="7TB6_AQnsx2KHM4zwrPS-92" value="" style="ellipse;html=1;shape=endState;fillColor=#FFFFFF;strokeColor=#CC0000;gradientColor=none;perimeterSpacing=50;strokeWidth=1;" vertex="1" parent="1">
          <mxGeometry x="810" y="-90" width="40" height="40" as="geometry" />
        </mxCell>
        <mxCell id="7TB6_AQnsx2KHM4zwrPS-93" value="" style="shape=umlDestroy;whiteSpace=wrap;html=1;strokeWidth=3;targetShapes=umlLifeline;" vertex="1" parent="1">
          <mxGeometry x="815.5" y="-84.5" width="29" height="29" as="geometry" />
        </mxCell>
        <mxCell id="7TB6_AQnsx2KHM4zwrPS-95" value="&lt;div&gt;Analiza primedbe&lt;/div&gt;&amp;nbsp;i istraga" style="rounded=1;whiteSpace=wrap;html=1;arcSize=40;fontColor=#000000;fillColor=#ffffc0;strokeColor=#ff0000;" vertex="1" parent="1">
          <mxGeometry x="920" y="-90" width="120" height="40" as="geometry" />
        </mxCell>
        <mxCell id="7TB6_AQnsx2KHM4zwrPS-96" value="" style="edgeStyle=orthogonalEdgeStyle;html=1;verticalAlign=bottom;endArrow=open;endSize=8;strokeColor=#ff0000;rounded=0;entryX=0.5;entryY=0;entryDx=0;entryDy=0;" edge="1" source="7TB6_AQnsx2KHM4zwrPS-95" parent="1" target="7TB6_AQnsx2KHM4zwrPS-101">
          <mxGeometry relative="1" as="geometry">
            <mxPoint x="980" y="-10" as="targetPoint" />
            <Array as="points">
              <mxPoint x="980" y="-40" />
              <mxPoint x="1050" y="-40" />
            </Array>
          </mxGeometry>
        </mxCell>
        <mxCell id="7TB6_AQnsx2KHM4zwrPS-100" value="" style="edgeStyle=orthogonalEdgeStyle;html=1;verticalAlign=bottom;endArrow=open;endSize=8;strokeColor=#ff0000;rounded=0;" edge="1" parent="1">
          <mxGeometry relative="1" as="geometry">
            <mxPoint x="979.66" y="-90" as="targetPoint" />
            <mxPoint x="979.66" y="-130" as="sourcePoint" />
            <Array as="points">
              <mxPoint x="979.66" y="-110" />
              <mxPoint x="979.66" y="-110" />
            </Array>
          </mxGeometry>
        </mxCell>
        <mxCell id="7TB6_AQnsx2KHM4zwrPS-101" value="Primedba uvažena" style="rhombus;whiteSpace=wrap;html=1;fontColor=#000000;fillColor=#ffffc0;strokeColor=#ff0000;" vertex="1" parent="1">
          <mxGeometry x="1004.98" width="90" height="50" as="geometry" />
        </mxCell>
        <mxCell id="7TB6_AQnsx2KHM4zwrPS-102" value="Da" style="edgeStyle=orthogonalEdgeStyle;html=1;align=left;verticalAlign=bottom;endArrow=open;endSize=8;strokeColor=#ff0000;rounded=0;" edge="1" parent="1" source="7TB6_AQnsx2KHM4zwrPS-101">
          <mxGeometry x="-1" relative="1" as="geometry">
            <mxPoint x="1190" y="70" as="targetPoint" />
            <Array as="points">
              <mxPoint x="1189.98" y="25" />
            </Array>
          </mxGeometry>
        </mxCell>
        <mxCell id="7TB6_AQnsx2KHM4zwrPS-103" value="Ne&lt;br&gt;" style="edgeStyle=orthogonalEdgeStyle;html=1;align=left;verticalAlign=top;endArrow=open;endSize=8;strokeColor=#ff0000;rounded=0;exitX=0;exitY=0.5;exitDx=0;exitDy=0;entryX=0.5;entryY=0;entryDx=0;entryDy=0;" edge="1" parent="1" source="7TB6_AQnsx2KHM4zwrPS-101" target="7TB6_AQnsx2KHM4zwrPS-104">
          <mxGeometry x="-0.7059" y="-25" relative="1" as="geometry">
            <mxPoint x="909.98" y="120" as="targetPoint" />
            <Array as="points">
              <mxPoint x="920" y="25" />
              <mxPoint x="920" y="120" />
            </Array>
            <mxPoint as="offset" />
          </mxGeometry>
        </mxCell>
        <mxCell id="7TB6_AQnsx2KHM4zwrPS-104" value="" style="ellipse;html=1;shape=endState;fillColor=#000000;strokeColor=#ff0000;" vertex="1" parent="1">
          <mxGeometry x="900" y="120" width="40" height="40" as="geometry" />
        </mxCell>
        <mxCell id="7TB6_AQnsx2KHM4zwrPS-105" value="&lt;div&gt;Internet formular&lt;/div&gt;" style="rounded=1;whiteSpace=wrap;html=1;arcSize=40;fontColor=#000000;fillColor=#ffffc0;strokeColor=#ff0000;" vertex="1" parent="1">
          <mxGeometry x="1130" y="-310" width="120" height="40" as="geometry" />
        </mxCell>
        <mxCell id="7TB6_AQnsx2KHM4zwrPS-106" value="" style="edgeStyle=orthogonalEdgeStyle;html=1;verticalAlign=bottom;endArrow=open;endSize=8;strokeColor=#ff0000;rounded=0;" edge="1" source="7TB6_AQnsx2KHM4zwrPS-105" parent="1">
          <mxGeometry relative="1" as="geometry">
            <mxPoint x="1190" y="-210" as="targetPoint" />
          </mxGeometry>
        </mxCell>
        <mxCell id="7TB6_AQnsx2KHM4zwrPS-108" value="Pamćenje primedbe u bazu" style="rounded=1;whiteSpace=wrap;html=1;arcSize=40;fontColor=#000000;fillColor=#ffffc0;strokeColor=#ff0000;" vertex="1" parent="1">
          <mxGeometry x="1130" y="-210" width="120" height="40" as="geometry" />
        </mxCell>
        <mxCell id="7TB6_AQnsx2KHM4zwrPS-109" value="" style="edgeStyle=orthogonalEdgeStyle;html=1;verticalAlign=bottom;endArrow=open;endSize=8;strokeColor=#ff0000;rounded=0;entryX=0.5;entryY=0;entryDx=0;entryDy=0;" edge="1" source="7TB6_AQnsx2KHM4zwrPS-108" parent="1" target="7TB6_AQnsx2KHM4zwrPS-101">
          <mxGeometry relative="1" as="geometry">
            <mxPoint x="1190" y="-110" as="targetPoint" />
            <Array as="points">
              <mxPoint x="1190" y="-40" />
              <mxPoint x="1050" y="-40" />
            </Array>
          </mxGeometry>
        </mxCell>
        <mxCell id="7TB6_AQnsx2KHM4zwrPS-112" value="Beleženje glasačkog mesta u bazu" style="rounded=1;whiteSpace=wrap;html=1;arcSize=40;fontColor=#000000;fillColor=#ffffc0;strokeColor=#ff0000;" vertex="1" parent="1">
          <mxGeometry x="1130" y="70" width="120" height="40" as="geometry" />
        </mxCell>
        <mxCell id="7TB6_AQnsx2KHM4zwrPS-113" value="" style="edgeStyle=orthogonalEdgeStyle;html=1;verticalAlign=bottom;endArrow=open;endSize=8;strokeColor=#ff0000;rounded=0;entryX=0.503;entryY=-0.092;entryDx=0;entryDy=0;entryPerimeter=0;" edge="1" source="7TB6_AQnsx2KHM4zwrPS-112" parent="1" target="7TB6_AQnsx2KHM4zwrPS-114">
          <mxGeometry relative="1" as="geometry">
            <mxPoint x="1190" y="140" as="targetPoint" />
          </mxGeometry>
        </mxCell>
        <mxCell id="7TB6_AQnsx2KHM4zwrPS-114" value="Anuliranje glasova sa glasačkog mesta" style="rounded=1;whiteSpace=wrap;html=1;arcSize=40;fontColor=#000000;fillColor=#ffffc0;strokeColor=#ff0000;" vertex="1" parent="1">
          <mxGeometry x="1130" y="150" width="120" height="40" as="geometry" />
        </mxCell>
        <mxCell id="7TB6_AQnsx2KHM4zwrPS-115" value="" style="edgeStyle=orthogonalEdgeStyle;html=1;verticalAlign=bottom;endArrow=open;endSize=8;strokeColor=#ff0000;rounded=0;" edge="1" source="7TB6_AQnsx2KHM4zwrPS-114" parent="1">
          <mxGeometry relative="1" as="geometry">
            <mxPoint x="1190" y="230" as="targetPoint" />
          </mxGeometry>
        </mxCell>
        <mxCell id="7TB6_AQnsx2KHM4zwrPS-116" value="Preusmeravanje glasača na drugo mesto" style="rounded=1;whiteSpace=wrap;html=1;arcSize=40;fontColor=#000000;fillColor=#ffffc0;strokeColor=#ff0000;" vertex="1" parent="1">
          <mxGeometry x="1130" y="230" width="120" height="40" as="geometry" />
        </mxCell>
        <mxCell id="7TB6_AQnsx2KHM4zwrPS-117" value="" style="edgeStyle=orthogonalEdgeStyle;html=1;verticalAlign=bottom;endArrow=open;endSize=8;strokeColor=#ff0000;rounded=0;" edge="1" source="7TB6_AQnsx2KHM4zwrPS-116" parent="1">
          <mxGeometry relative="1" as="geometry">
            <mxPoint x="1190" y="310" as="targetPoint" />
          </mxGeometry>
        </mxCell>
        <mxCell id="7TB6_AQnsx2KHM4zwrPS-118" value="Zatvaranje glasačkog mesta" style="rounded=1;whiteSpace=wrap;html=1;arcSize=40;fontColor=#000000;fillColor=#ffffc0;strokeColor=#ff0000;" vertex="1" parent="1">
          <mxGeometry x="1130" y="310" width="120" height="40" as="geometry" />
        </mxCell>
        <mxCell id="7TB6_AQnsx2KHM4zwrPS-119" value="" style="edgeStyle=orthogonalEdgeStyle;html=1;verticalAlign=bottom;endArrow=open;endSize=8;strokeColor=#ff0000;rounded=0;" edge="1" source="7TB6_AQnsx2KHM4zwrPS-118" parent="1">
          <mxGeometry relative="1" as="geometry">
            <mxPoint x="1190" y="390" as="targetPoint" />
          </mxGeometry>
        </mxCell>
        <mxCell id="7TB6_AQnsx2KHM4zwrPS-120" value="" style="ellipse;html=1;shape=endState;fillColor=#000000;strokeColor=#ff0000;" vertex="1" parent="1">
          <mxGeometry x="1175" y="390" width="30" height="30" as="geometry" />
        </mxCell>
      </root>
    </mxGraphModel>
  </diagram>
</mxfile>
